<?xml version="1.0" encoding="UTF-8" standalone="no"?>
<!-- Created with Inkscape (http://www.inkscape.org/) -->

<svg
   xmlns:dc="http://purl.org/dc/elements/1.1/"
   xmlns:cc="http://creativecommons.org/ns#"
   xmlns:rdf="http://www.w3.org/1999/02/22-rdf-syntax-ns#"
   xmlns:svg="http://www.w3.org/2000/svg"
   xmlns="http://www.w3.org/2000/svg"
   xmlns:xlink="http://www.w3.org/1999/xlink"
   xmlns:sodipodi="http://sodipodi.sourceforge.net/DTD/sodipodi-0.dtd"
   xmlns:inkscape="http://www.inkscape.org/namespaces/inkscape"
   width="760"
   height="760"
   viewBox="0 0 201.08333 201.08334"
   version="1.1"
   id="svg8"
   inkscape:version="0.92.3 (2405546, 2018-03-11)"
   sodipodi:docname="meikade.svg">
  <defs
     id="defs2">
    <linearGradient
       inkscape:collect="always"
       id="linearGradient882">
      <stop
         style="stop-color:#cd1b26;stop-opacity:1;"
         offset="0"
         id="stop878" />
      <stop
         style="stop-color:#2d0708;stop-opacity:1"
         offset="1"
         id="stop880" />
    </linearGradient>
    <linearGradient
       inkscape:collect="always"
       xlink:href="#linearGradient882"
       id="linearGradient884"
       x1="98.378761"
       y1="278.31512"
       x2="98.421616"
       y2="117.62329"
       gradientUnits="userSpaceOnUse"
       gradientTransform="matrix(0.96197934,0,0,0.96197934,25.065328,0.80847968)" />
  </defs>
  <sodipodi:namedview
     id="base"
     pagecolor="#ffffff"
     bordercolor="#666666"
     borderopacity="1.0"
     inkscape:pageopacity="0.0"
     inkscape:pageshadow="2"
     inkscape:zoom="0.49497475"
     inkscape:cx="526.97287"
     inkscape:cy="541.51946"
     inkscape:document-units="mm"
     inkscape:current-layer="layer1"
     showgrid="false"
     units="px"
     inkscape:window-width="1920"
     inkscape:window-height="1054"
     inkscape:window-x="0"
     inkscape:window-y="26"
     inkscape:window-maximized="1" />
  <metadata
     id="metadata5">
    <rdf:RDF>
      <cc:Work
         rdf:about="">
        <dc:format>image/svg+xml</dc:format>
        <dc:type
           rdf:resource="http://purl.org/dc/dcmitype/StillImage" />
        <dc:title></dc:title>
      </cc:Work>
    </rdf:RDF>
  </metadata>
  <g
     inkscape:label="Layer 1"
     inkscape:groupmode="layer"
     id="layer1"
     transform="translate(0,-95.91665)">
    <path
       style="fill:url(#linearGradient884);fill-opacity:1;stroke-width:0.44221219"
       d="m 47.959918,269.07528 c -0.838855,-0.63458 -0.83667,-0.66445 0.123505,-1.68652 0.537616,-0.57226 3.110861,-2.19958 5.718313,-3.61627 13.949708,-7.57914 21.413283,-13.68875 26.743842,-21.89222 2.787565,-4.28993 7.138789,-12.83121 11.002224,-21.59697 1.46208,-3.31732 2.934774,-6.31556 3.272659,-6.66276 1.118186,-1.14905 1.271409,0.6911 0.378154,4.54152 -1.098791,4.73641 -1.149324,13.88661 -0.08985,16.27212 1.109009,2.49704 3.675233,5.03839 6.221545,6.1612 1.89737,0.83666 3.12021,1.02678 6.74005,1.04785 3.90391,0.0227 4.71854,-0.1132 6.95172,-1.15987 3.27511,-1.53504 6.10054,-4.47887 8.06229,-8.40014 2.23657,-4.47065 2.05173,-7.305 -0.73268,-11.23427 -1.82342,-2.57315 -5.05789,-4.90562 -10.69923,-7.71548 -4.308,-2.14575 -4.92606,-2.59414 -5.05017,-3.66382 -0.24642,-2.12364 3.39681,-11.79235 4.91958,-13.05598 0.92703,-0.76927 2.834,-0.35562 6.27713,1.36158 5.24228,2.61449 8.55482,6.22471 10.71037,11.67289 1.12989,2.85579 1.20068,3.45224 1.19972,10.11023 -9.6e-4,8.12208 -0.17323,8.78605 -5.31263,20.49906 -6.19718,14.12372 -12.79075,22.30369 -20.41966,25.33253 -2.00031,0.79416 -3.43178,1.01169 -6.740656,1.02437 -4.843652,0.0186 -6.749704,-0.72348 -9.7197,-3.78386 -2.293609,-2.36341 -3.494323,-4.96906 -4.369598,-9.48239 -0.398645,-2.05562 -0.844859,-3.73815 -0.99158,-3.73894 -0.146731,-8.9e-4 -1.172682,1.36089 -2.279882,3.02596 -2.706711,4.07051 -7.089643,9.29223 -9.089098,10.82851 -3.399836,2.61228 -6.643283,3.83129 -14.405023,5.41394 -6.049816,1.23359 -7.241983,1.28991 -8.421329,0.39773 z m 13.273839,-19.6603 c -1.888135,-0.60344 -4.484094,-3.34541 -5.6139,-5.92967 -1.913107,-4.37592 -0.998044,-12.35942 2.53976,-22.1581 0.878134,-2.43217 1.897861,-4.76622 2.266058,-5.18677 0.599842,-0.68515 0.594224,-0.79352 -0.05406,-1.04229 -1.016909,-0.39022 -0.913487,-2.07915 0.407561,-6.65618 2.571534,-8.90954 7.73513,-16.95555 11.312029,-17.62658 1.845346,-0.34618 7.21014,0.73548 9.538045,1.92309 2.184634,1.11452 4.817062,3.99974 5.842081,6.4031 3.809793,8.93278 2.112015,20.98007 -4.931944,34.99679 -5.148705,10.24535 -10.632372,15.21777 -17.142527,15.5443 -1.580908,0.0793 -3.454305,-0.0412 -4.163101,-0.26769 z m 12.565132,-17.03936 c 5.858281,-2.96247 7.075445,-7.2005 3.326025,-11.58086 -2.752204,-3.21533 -7.324251,-5.18266 -12.833593,-5.52224 -2.073238,-0.12779 -2.202413,-0.0742 -2.072372,0.86066 0.07628,0.54832 -0.256859,2.63777 -0.740291,4.64323 -1.398045,5.79966 -1.507143,7.4124 -0.619544,9.15889 1.912223,3.76261 8.03976,4.91822 12.939775,2.44032 z m 26.323171,-14.68066 c 1.27087,-4.18846 0.54083,-12.36999 -1.362188,-15.26583 -0.709354,-1.07944 -3.127443,-3.01845 -6.978434,-5.59587 -8.346228,-5.58601 -9.75981,-7.5053 -9.683351,-13.1476 0.112181,-8.27862 7.52971,-22.30768 17.105863,-32.35292 3.61337,-3.79037 12.06799,-10.70925 13.08633,-10.70925 1.06178,0 0.25404,-0.95931 -1.34722,-1.6 -2.53664,-1.01497 -4.09959,-3.00374 -3.74204,-4.76155 0.70432,-3.46264 7.06841,-14.58285 10.24427,-17.90024 l 2.29959,-2.40204 3.05965,0.28436 c 4.13912,0.38469 7.30108,1.47153 10.46435,3.59682 4.75442,3.19431 5.77133,6.33182 3.55904,10.98086 -2.51908,5.29379 -7.05867,9.51036 -14.60681,13.56743 -5.4564,2.9328 -15.51098,9.76292 -19.65462,13.3515 -5.183643,4.48925 -7.614027,7.70622 -7.865997,10.41179 -0.269219,2.89068 0.833805,4.34801 6.073327,8.02416 3.46547,2.43143 4.43081,3.37175 5.51347,5.37062 1.16023,2.14211 1.33284,2.95196 1.48835,6.9831 0.33206,8.6076 -1.68231,18.85823 -5.48912,27.93262 -2.1678,5.1675 -3.235447,6.76174 -2.16446,3.23204 z m 13.03371,-26.01067 c 0,-1.24999 4.98806,-9.15216 9.39586,-14.88505 5.38837,-7.00827 18.46801,-16.85085 50.78026,-38.21272 8.97427,-5.93295 16.50432,-10.78718 16.73347,-10.78718 0.44655,0 5.54574,7.02595 5.27966,7.2746 -0.30108,0.28137 -15.86675,10.7971 -21.05289,14.22274 -39.50339,26.09356 -55.72182,37.44828 -59.5466,41.68933 -0.79094,0.87701 -1.58976,1.22788 -1.58976,0.69828 z"
       id="path826"
       inkscape:connector-curvature="0"
       inkscape:export-xdpi="115.197"
       inkscape:export-ydpi="115.197" />
  </g>
</svg>
